HIERARCHY
ROOT root
{
	OFFSET 0.000000 0.000000 0.000000
	CHANNELS 6 Xposition Yposition Zposition Zrotation Yrotation Xrotation
	JOINT lhip
	{
		OFFSET 0.058581 -0.082280 -0.017664
		CHANNELS 3 Zrotation Yrotation Xrotation
		JOINT lknee
		{
			OFFSET 0.043451 -0.386469 0.008037
			CHANNELS 3 Zrotation Yrotation Xrotation
			JOINT lankle
			{
				OFFSET -0.014790 -0.426874 -0.037428
				CHANNELS 3 Zrotation Yrotation Xrotation
				JOINT ltoe
				{
					OFFSET 0.041054 -0.060286 0.122042
					CHANNELS 3 Zrotation Yrotation Xrotation
					End Site
					{
						OFFSET 0.000000 0.000000 0.000000
					}
				}
			}
		}
	}
	JOINT rhip
	{
		OFFSET -0.060310 -0.090513 -0.013543
		CHANNELS 3 Zrotation Yrotation Xrotation
		JOINT rknee
		{
			OFFSET -0.043257 -0.383688 -0.004843
			CHANNELS 3 Zrotation Yrotation Xrotation
			JOINT rankle
			{
				OFFSET 0.019056 -0.420046 -0.034562
				CHANNELS 3 Zrotation Yrotation Xrotation
				JOINT rtoe
				{
					OFFSET -0.034840 -0.062106 0.130323
					CHANNELS 3 Zrotation Yrotation Xrotation
					End Site
					{
						OFFSET 0.000000 0.000000 0.000000
					}
				}
			}
		}
	}
	JOINT lowerback
	{
		OFFSET 0.004439 0.124404 -0.038385
		CHANNELS 3 Zrotation Yrotation Xrotation
		JOINT upperback
		{
			OFFSET 0.004488 0.137956 0.026820
			CHANNELS 3 Zrotation Yrotation Xrotation
			JOINT chest
			{
				OFFSET -0.002265 0.056032 0.002855
				CHANNELS 3 Zrotation Yrotation Xrotation
				JOINT lowerneck
				{
					OFFSET -0.013390 0.211636 -0.033468
					CHANNELS 3 Zrotation Yrotation Xrotation
					JOINT upperneck
					{
						OFFSET 0.010113 0.088937 0.050410
						CHANNELS 3 Zrotation Yrotation Xrotation
						End Site
						{
							OFFSET 0.000000 0.000000 0.000000
						}
					}
				}
				JOINT lclavicle
				{
					OFFSET 0.071702 0.114000 -0.018898
					CHANNELS 3 Zrotation Yrotation Xrotation
					JOINT lshoulder
					{
						OFFSET 0.122921 0.045205 -0.019046
						CHANNELS 3 Zrotation Yrotation Xrotation
						JOINT lelbow
						{
							OFFSET 0.255332 -0.015649 -0.022946
							CHANNELS 3 Zrotation Yrotation Xrotation
							JOINT lwrist
							{
								OFFSET 0.265709 0.012698 -0.007375
								CHANNELS 3 Zrotation Yrotation Xrotation
								End Site
								{
									OFFSET 0.000000 0.000000 0.000000
								}
							}
						}
					}
				}
				JOINT rclavicle
				{
					OFFSET -0.082954 0.112472 -0.023707
					CHANNELS 3 Zrotation Yrotation Xrotation
					JOINT rshoulder
					{
						OFFSET -0.113228 0.046853 -0.008472
						CHANNELS 3 Zrotation Yrotation Xrotation
						JOINT relbow
						{
							OFFSET -0.260127 -0.014369 -0.031269
							CHANNELS 3 Zrotation Yrotation Xrotation
							JOINT rwrist
							{
								OFFSET -0.269108 0.006794 -0.006027
								CHANNELS 3 Zrotation Yrotation Xrotation
								End Site
								{
									OFFSET 0.000000 0.000000 0.000000
								}
							}
						}
					}
				}
			}
		}
	}
}
MOTION
Frames: 18
Frame Time: 0.033333
-0.031145 1.424242 1.002877 4.294285 -2.693088 87.301932 2.577466 -0.606912 0.168761 -1.427596 -12.591155 4.117112 2.359077 7.701708 -5.494561 0.000000 -0.000000 0.000000 -3.963371 -4.348692 0.906051 -3.438272 0.783217 6.862818 1.911898 -9.851155 -8.381072 0.000000 -0.000000 0.000000 -0.430176 2.119395 3.409144 -2.067927 -0.392215 -2.230540 -2.224127 -0.434813 3.499077 -1.846303 -0.813254 4.874574 -0.867792 -0.967872 14.764007 -19.999257 8.208822 2.549581 -62.657405 -6.477560 8.843989 6.365139 -24.604118 22.949541 3.244756 -0.677985 -7.431614 20.193166 -3.467903 0.904109 62.122215 5.517942 12.860690 -7.229845 20.813388 13.099517 8.786766 0.608265 -5.445864 
-0.030986 1.423809 1.002773 4.180500 -2.699363 87.314995 2.564652 -0.609510 0.219864 -1.425936 -12.494989 4.083348 2.281606 7.749267 -5.551893 0.000000 -0.000000 0.000000 -3.967284 -4.297302 0.838932 -3.458022 0.809331 7.007049 1.923015 -9.838170 -8.449505 0.000000 -0.000000 0.000000 -0.433503 2.126603 3.374882 -2.070685 -0.350162 -2.258633 -2.227592 -0.410356 3.515546 -1.880955 -0.878873 4.835967 -0.877305 -1.056437 14.793312 -19.983895 8.231576 2.630965 -62.728014 -6.606046 8.856951 6.393178 -24.575622 23.067079 3.298162 -0.735054 -7.575473 20.078728 -3.477914 1.014261 62.267317 5.545934 12.949941 -7.281350 20.797339 13.171102 8.623043 0.554327 -5.805086 
-0.030915 1.423365 1.002722 4.171504 -2.650371 87.335702 2.612386 -0.625804 0.206898 -1.424690 -12.487647 4.147326 2.321072 7.756654 -5.586836 0.000000 -0.000000 0.000000 -3.907176 -4.219644 0.870921 -3.490482 0.653817 7.004517 1.939799 -9.974383 -8.393080 0.000000 -0.000000 0.000000 -0.426361 2.072477 3.498996 -2.068288 -0.320213 -2.485352 -2.200000 -0.436397 3.450210 -1.849558 -0.889633 4.932887 -0.860279 -1.059666 14.897921 -20.002001 8.320696 2.576974 -62.755325 -6.617942 8.830707 6.399467 -24.577192 23.182391 2.980097 -0.721348 -7.615208 20.094316 -3.616717 1.032119 62.264200 5.415090 12.984570 -7.287382 20.856186 13.262507 8.572385 0.572547 -5.832412 
-0.030620 1.422054 1.002581 3.984130 -2.683962 87.243241 2.562040 -0.504649 0.588049 -1.367603 -12.484317 3.842982 2.270617 7.813996 -5.609725 0.000000 -0.000000 0.000000 -3.964173 -4.122371 1.069296 -3.470617 0.773836 6.908282 1.981277 -9.846218 -8.448254 0.000000 -0.000000 0.000000 -0.464286 2.111683 3.353739 -2.067353 -0.222214 -2.290274 -2.196288 -0.409919 3.440000 -1.910823 -0.909285 4.880830 -0.874763 -1.141463 15.043434 -19.931845 8.194989 2.691933 -62.882358 -6.641788 8.837318 6.572846 -24.665724 22.931445 3.084236 -0.683580 -7.526637 20.075208 -3.546488 1.176134 62.326103 5.452044 12.933438 -7.326751 20.748243 13.162906 8.611861 0.504834 -5.776110 
-0.030524 1.421588 1.002574 3.986103 -2.702614 87.301631 2.547590 -0.579431 0.526511 -1.411142 -12.442773 3.957800 2.314665 7.806116 -5.624618 0.000000 -0.000000 0.000000 -4.000873 -4.165873 1.083414 -3.473423 0.732166 6.823710 1.885845 -9.780125 -8.458434 0.000000 -0.000000 0.000000 -0.465732 2.123459 3.378784 -2.087619 -0.249238 -2.394999 -2.205062 -0.461408 3.453876 -1.902484 -0.832695 4.851970 -0.910297 -1.096268 14.990315 -19.954464 8.310812 2.637130 -62.844633 -6.618572 8.856258 6.563903 -24.757719 22.994740 2.954448 -0.789732 -7.485352 20.137055 -3.662359 1.152597 62.298321 5.452546 12.970462 -7.311676 20.751557 13.218007 8.594043 0.590623 -5.704674 
-0.030337 1.421282 1.002452 4.005287 -2.729898 87.335246 2.495001 -0.584181 0.457037 -1.405054 -12.413725 4.086034 2.396900 7.788510 -5.719929 0.000000 -0.000000 0.000000 -4.041554 -4.229622 0.955774 -3.486679 0.675818 7.085857 1.993214 -9.898103 -8.503872 0.000000 -0.000000 0.000000 -0.553774 2.137742 3.258730 -2.036167 -0.247696 -2.327552 -2.191655 -0.397581 3.537444 -1.866198 -0.953055 4.725109 -0.909703 -1.197201 15.124298 -19.841520 8.287537 2.676208 -63.009918 -6.786953 8.923725 6.567896 -24.849592 23.168646 2.921549 -0.700741 -7.666914 20.153659 -3.656964 1.116433 62.364175 5.462181 12.931450 -7.430260 20.670326 13.204845 8.755796 0.693158 -5.655504 
-0.030215 1.420651 1.002390 4.048606 -2.760866 87.327151 2.462924 -0.644277 0.546851 -1.413203 -12.423096 4.011890 2.387073 7.789270 -5.666092 0.000000 -0.000000 0.000000 -4.077764 -4.266972 1.042132 -3.507029 0.643113 7.101258 2.044390 -10.093778 -8.497265 0.000000 -0.000000 0.000000 -0.583962 2.123976 3.279177 -2.057873 -0.276057 -2.349096 -2.200103 -0.393253 3.565754 -1.907071 -0.942607 4.544917 -0.927476 -1.155472 15.142310 -19.875905 8.201343 2.632103 -62.962763 -6.789039 8.954805 6.546085 -24.865329 23.008721 3.226167 -0.533253 -7.766513 20.176550 -3.581980 1.085016 62.415250 5.377198 13.008838 -7.473315 20.617271 13.066200 8.550332 0.610754 -5.537344 
-0.030086 1.420209 1.002215 4.063752 -2.731518 87.400058 2.496411 -0.642513 0.468877 -1.425502 -12.429365 4.049795 2.412982 7.794888 -5.662772 0.000000 -0.000000 0.000000 -4.028931 -4.284793 0.961532 -3.516240 0.746361 7.107545 1.982620 -10.016371 -8.546319 0.000000 -0.000000 0.000000 -0.574466 2.128354 3.161134 -2.039387 -0.298510 -2.241585 -2.197929 -0.385689 3.542988 -1.952436 -1.019992 4.539327 -0.850434 -1.182928 15.011765 -19.882783 8.183227 2.659868 -62.983613 -6.877186 8.930911 6.547409 -24.874593 23.030519 3.303735 -0.424997 -7.910217 20.119856 -3.560875 1.090214 62.493719 5.357057 12.958612 -7.514070 20.648044 13.140626 8.717373 0.578415 -5.517557 
-0.029955 1.419950 1.002177 4.127724 -2.704173 87.436922 2.518216 -0.651040 0.407347 -1.424678 -12.452085 4.103024 2.362540 7.792541 -5.671000 0.000000 -0.000000 0.000000 -4.008473 -4.319641 0.914508 -3.512420 0.709490 7.188156 1.992302 -10.099427 -8.541666 0.000000 -0.000000 0.000000 -0.542202 2.076646 3.236997 -2.044166 -0.327678 -2.338226 -2.210290 -0.385371 3.576750 -1.919123 -0.941034 4.454633 -0.912065 -1.111833 15.037553 -19.835457 8.254636 2.553683 -63.053344 -6.876727 8.999284 6.546135 -24.706537 23.286914 3.379605 -0.530873 -8.115987 20.090496 -3.604375 1.063605 62.530197 5.411967 13.036346 -7.468190 20.563133 13.263635 8.582342 0.653031 -5.773835 
-0.029826 1.419284 1.002168 3.994519 -2.694561 87.462360 2.543731 -0.579483 0.509818 -1.442248 -12.437794 4.011501 2.396699 7.820904 -5.734229 0.000000 -0.000000 0.000000 -3.997375 -4.258322 0.898989 -3.522016 0.790273 7.219513 2.013436 -10.028564 -8.572000 0.000000 -0.000000 0.000000 -0.534722 2.077925 3.202609 -2.042435 -0.287595 -2.289927 -2.220129 -0.299585 3.500454 -1.923969 -0.945909 4.444856 -0.906283 -1.090118 15.084659 -19.828852 8.201263 2.565969 -63.055338 -6.895911 8.929967 6.576694 -24.471610 23.305736 3.328271 -0.808793 -8.198258 20.054452 -3.506647 1.066796 62.584832 5.300400 13.017134 -7.497215 20.546064 13.369678 8.557750 0.813833 -5.795073 
-0.029734 1.418657 1.002160 3.865498 -2.717736 87.450085 2.507497 -0.523849 0.629819 -1.422289 -12.404398 3.965526 2.411414 7.853781 -5.770631 0.000000 -0.000000 0.000000 -4.065383 -4.278737 0.936398 -3.482236 0.812287 7.295478 2.120672 -10.074644 -8.563280 0.000000 -0.000000 0.000000 -0.554806 2.119243 3.086967 -2.062838 -0.235695 -2.156849 -2.227675 -0.307001 3.594119 -1.933617 -0.917018 4.381359 -1.021581 -1.036390 15.106805 -19.886221 8.212723 2.438314 -62.986498 -6.830993 8.913439 6.552870 -24.485094 23.129529 3.307206 -0.676919 -7.998378 20.126678 -3.450928 1.050818 62.514180 5.469113 13.022475 -7.539503 20.540385 13.034773 8.825091 0.655756 -5.547029 
-0.029672 1.418233 1.002167 3.874299 -2.684774 87.460934 2.528809 -0.563360 0.648461 -1.410366 -12.377716 3.950849 2.423350 7.858942 -5.759773 0.000000 -0.000000 0.000000 -3.999542 -4.234296 0.960762 -3.519802 0.763922 7.248820 2.064951 -10.121487 -8.543819 0.000000 -0.000000 0.000000 -0.491691 2.062962 3.034285 -2.094553 -0.264443 -2.141163 -2.288139 -0.372779 3.629035 -1.840798 -0.815156 4.384043 -1.052415 -1.030934 15.174643 -19.948338 8.206503 2.537437 -62.925268 -6.869699 8.858772 6.714133 -24.428596 22.773273 3.285139 -0.732739 -7.889920 20.141769 -3.296774 1.248839 62.490941 5.843751 13.187836 -7.434980 20.191052 13.063785 8.499194 0.865737 -5.618815 
-0.029639 1.417779 1.002337 3.793352 -2.710719 87.493224 2.499557 -0.479310 0.698561 -1.398614 -12.370080 3.872227 2.391535 7.897321 -5.764836 0.000000 -0.000000 0.000000 -4.014488 -4.147074 0.939362 -3.539349 0.731915 7.293245 2.120320 -10.062766 -8.594875 0.000000 -0.000000 0.000000 -0.491906 2.056789 3.389490 -2.162927 -0.156099 -2.501416 -2.281197 -0.303729 3.476806 -1.892152 -0.966924 4.338370 -1.052954 -1.099464 15.190797 -19.996812 8.243645 2.434960 -62.840441 -6.623910 8.842666 6.688754 -24.309880 22.890557 3.287404 -0.939107 -7.676767 20.191369 -3.336143 1.090934 62.432110 5.534893 13.076631 -7.314399 20.133344 13.094393 8.499305 1.068047 -5.578587 
-0.029596 1.417342 1.002325 3.778631 -2.725116 87.426455 2.467510 -0.484747 0.841683 -1.356490 -12.343306 3.794414 2.396165 7.914579 -5.857362 0.000000 -0.000000 0.000000 -4.019376 -4.039977 0.996816 -3.556006 0.756266 7.399946 2.047701 -10.146245 -8.649079 0.000000 -0.000000 0.000000 -0.489851 1.982503 3.266241 -2.178712 -0.189025 -2.295193 -2.355244 -0.491435 3.550124 -1.802724 -0.729838 4.343873 -1.173419 -1.087904 15.252599 -20.007550 8.260653 2.466570 -62.883878 -6.560125 8.909358 6.977633 -24.282599 22.476071 3.183308 -0.931089 -7.642880 20.224572 -3.142174 1.538011 62.453286 6.232928 13.427823 -7.479591 19.985598 12.706193 8.607517 0.611215 -5.712630 
-0.029533 1.416902 1.002312 3.789811 -2.730402 87.440011 2.455769 -0.469907 0.877987 -1.361563 -12.412802 3.779625 2.381491 7.920868 -5.847432 0.000000 -0.000000 0.000000 -4.008213 -3.990865 0.980180 -3.589458 0.755149 7.474418 2.051743 -10.177822 -8.675843 0.000000 -0.000000 0.000000 -0.503366 1.940021 3.350758 -2.202586 -0.170077 -2.444084 -2.368727 -0.543690 3.543502 -1.804771 -0.663824 4.355012 -1.201588 -1.094752 15.369127 -20.027192 8.363833 2.555374 -62.849104 -6.495343 8.871792 6.935373 -24.465738 22.390698 3.299546 -0.956515 -7.768711 20.229167 -3.154199 1.635410 62.435362 6.265329 13.568076 -7.416153 20.009928 12.726195 8.214839 0.565318 -5.861053 
-0.029540 1.416335 1.002346 3.711910 -2.754967 87.399969 2.427001 -0.433506 1.025345 -1.342034 -12.376669 3.695036 2.458063 7.910127 -5.818890 0.000000 -0.000000 0.000000 -4.033940 -4.001761 0.989054 -3.606169 0.799879 7.598306 2.034378 -10.126866 -8.748473 0.000000 -0.000000 0.000000 -0.565754 1.989836 3.290244 -2.203093 -0.133374 -2.249654 -2.358378 -0.503540 3.462673 -1.795780 -0.479759 4.610659 -1.066899 -0.909133 15.361516 -20.054960 8.360974 2.605544 -62.804207 -6.526664 8.754039 6.922465 -24.500804 22.469291 2.854586 -0.759375 -7.506575 20.297891 -3.147816 1.568049 62.297374 6.231232 13.390915 -7.359241 20.059121 12.798989 8.760984 0.520229 -5.537173 
-0.029484 1.415813 1.002370 3.483731 -2.825122 87.313965 2.320371 -0.305540 1.352889 -1.238256 -12.314394 3.363958 2.400329 8.000818 -5.845341 0.000000 -0.000000 0.000000 -4.102800 -3.827078 0.983414 -3.600332 0.867190 7.806622 2.055062 -10.145618 -8.869208 0.000000 -0.000000 0.000000 -0.598350 1.993318 3.271437 -2.249047 0.024127 -2.051237 -2.386869 -0.434368 3.471954 -1.805720 -0.533889 4.519446 -1.138454 -0.975430 15.300627 -20.117484 8.329740 2.605172 -62.698155 -6.566499 8.723197 6.832363 -24.429490 22.160583 2.962236 -0.890934 -7.580746 20.435901 -3.044550 1.517171 62.175540 6.251753 13.460914 -7.343531 20.053122 12.521472 8.544451 0.625479 -5.306815 
-0.029478 1.415724 1.002251 3.438859 -2.815930 87.358037 2.305344 -0.293974 1.307148 -1.202997 -12.319562 3.387832 2.454990 7.995681 -5.731291 0.000000 -0.000000 0.000000 -4.052397 -3.790977 0.787966 -3.618017 0.964941 8.060336 1.988013 -10.207779 -8.974859 0.000000 -0.000000 0.000000 -0.520289 1.943288 3.406694 -2.295885 0.062470 -2.143374 -2.401829 -0.369223 3.400908 -1.875738 -0.703496 4.615736 -1.266248 -0.988982 15.338834 -20.161656 8.300818 2.690757 -62.621427 -6.567628 8.627703 6.662259 -24.593046 22.385368 3.108875 -0.817728 -7.552546 20.397240 -3.005181 1.514639 62.185230 6.223050 13.338273 -7.275550 20.124427 12.633987 8.080727 0.949241 -5.399290 
